<?xml version="1.0" encoding="utf-8"?>
<!-- Generator: Adobe Illustrator 22.1.0, SVG Export Plug-In . SVG Version: 6.00 Build 0)  -->
<svg version="1.1" id="Ebene_1" xmlns="http://www.w3.org/2000/svg" xmlns:xlink="http://www.w3.org/1999/xlink" x="0px" y="0px"
	 viewBox="0 0 107.7 141.7" style="enable-background:new 0 0 107.7 141.7;" xml:space="preserve">
<style type="text/css">
	.st0{fill:#332359;}
</style>
<g>
	<g>
		<path class="st0" d="M85.8,15.7c-0.2-0.1-0.3-0.2-0.4-0.3c-0.8-1.8-5.7-13.1-13-14.5c-8.6-1.7-26.1-0.2-30.3,0.3
			c-0.5,0-0.7,0.5-0.5,0.9l12,23.2c0,0,0,0,0,0.1l1.7,4.2c0.1,0.4-0.1,0.8-0.4,0.9l-7.1,1.8c-0.9,0.2-1.7,0.9-2.1,1.8L11,116.3
			c-0.4,0.9,0.1,1.4,1,1.2l3.7-0.9c0.2,0,0.3-0.2,0.4-0.3c0.6-1.2,3.7-6.5,10.3-12.5C34,97.1,50,92.6,50.8,92.4
			c0,0,7.1-2.4,13.4-14.4c3.3-6.2,3.9-33,7.8-42c4.3-9.7,8.9-9.8,15.6-10c4.3-0.1,14.3-0.4,19.4-0.5c0.7,0,0.9-1,0.2-1.2L85.8,15.7z
			 M75.9,18.1c-3.5,2.2-6.9-2.1-3.9-5c0,0,0.1-0.1,0.1-0.1c3.5-2.2,6.9,2.1,3.9,5C76,18,76,18.1,75.9,18.1z"/>
		<path class="st0" d="M32.1,104.1c-0.1,0.1-0.1,0.1-0.2,0.3l-5.7,36.4c-0.1,0.7,0.6,1.2,1.2,0.9l6.3-3.1c0.1,0,0.2-0.1,0.2-0.2
			l16.5-41.7c0.1-0.3-0.1-0.6-0.4-0.5c-1.4,0.3-5,1.1-10,3.2C36.5,101,32.8,103.5,32.1,104.1z"/>
	</g>
	<path class="st0" d="M68.5,99.2c3.5,2.8,5.3,7,5.4,11.5c-4.6,1.1-9.5,0.3-13.2-2.7c-3.5-2.8-5.3-7-5.4-11.5
		C59.9,95.3,64.8,96.2,68.5,99.2z"/>
	<path class="st0" d="M73.2,83.4c3.9-2.2,8.4-2.5,12.4-1.3c-0.8,4.4-3.5,8.4-7.7,10.7c-3.9,2.2-8.4,2.5-12.4,1.3
		C66.3,89.8,69,85.8,73.2,83.4z"/>
	<polygon class="st0" points="0.3,87.7 0,89.9 29.3,93.9 29.6,91.7 	"/>
	<polygon class="st0" points="98.5,101.2 61.2,96.1 61,98.3 98.2,103.4 	"/>
</g>
</svg>
