<svg enable-background="new 0 0 107.7 141.7" viewBox="0 0 107.7 141.7" xmlns="http://www.w3.org/2000/svg"><g fill="#332359"><path d="m85.8 15.7c-.2-.1-.3-.2-.4-.3-.8-1.8-5.7-13.1-13-14.5-8.6-1.7-26.1-.2-30.3.3-.5 0-.7.5-.5.9l12 23.2v.1l1.7 4.2c.1.4-.1.8-.4.9l-7.1 1.8c-.9.2-1.7.9-2.1 1.8l-34.7 82.2c-.4.9.1 1.4 1 1.2l3.7-.9c.2 0 .3-.2.4-.3.6-1.2 3.7-6.5 10.3-12.5 7.6-6.7 23.6-11.2 24.4-11.4 0 0 7.1-2.4 13.4-14.4 3.3-6.2 3.9-33 7.8-42 4.3-9.7 8.9-9.8 15.6-10 4.3-.1 14.3-.4 19.4-.5.7 0 .9-1 .2-1.2zm-9.9 2.4c-3.5 2.2-6.9-2.1-3.9-5 0 0 .1-.1.1-.1 3.5-2.2 6.9 2.1 3.9 5 0 0 0 .1-.1.1z"/><path d="m32.1 104.1c-.1.1-.1.1-.2.3l-5.7 36.4c-.1.7.6 1.2 1.2.9l6.3-3.1c.1 0 .2-.1.2-.2l16.5-41.7c.1-.3-.1-.6-.4-.5-1.4.3-5 1.1-10 3.2-3.5 1.6-7.2 4.1-7.9 4.7z"/><path d="m68.5 99.2c3.5 2.8 5.3 7 5.4 11.5-4.6 1.1-9.5.3-13.2-2.7-3.5-2.8-5.3-7-5.4-11.5 4.6-1.2 9.5-.3 13.2 2.7z"/><path d="m73.2 83.4c3.9-2.2 8.4-2.5 12.4-1.3-.8 4.4-3.5 8.4-7.7 10.7-3.9 2.2-8.4 2.5-12.4 1.3.8-4.3 3.5-8.3 7.7-10.7z"/><path d="m.3 87.7-.3 2.2 29.3 4 .3-2.2z"/><path d="m98.5 101.2-37.3-5.1-.2 2.2 37.2 5.1z"/></g></svg>